<svg width="17" height="17" viewBox="0 0 17 17" fill="none" xmlns="http://www.w3.org/2000/svg">
<g clip-path="url(#clip0_471_1016)">
<path d="M8.50001 14.8526C12.1819 14.8526 15.1667 11.8679 15.1667 8.18595C15.1667 4.50406 12.1819 1.51929 8.50001 1.51929C4.81811 1.51929 1.83334 4.50406 1.83334 8.18595C1.83334 11.8679 4.81811 14.8526 8.50001 14.8526Z" stroke="#4B5563" stroke-width="2" stroke-linecap="round" stroke-linejoin="round"/>
<path d="M10.5 6.42195C10.1417 6.01576 9.6682 5.72829 9.14251 5.59782C8.61682 5.46734 8.06387 5.50004 7.55722 5.69155C7.05057 5.88307 6.61426 6.22433 6.30633 6.66993C5.9984 7.11552 5.83347 7.64432 5.83347 8.18595C5.83347 8.72759 5.9984 9.25639 6.30633 9.70198C6.61426 10.1476 7.05057 10.4888 7.55722 10.6804C8.06387 10.8719 8.61682 10.9046 9.14251 10.7741C9.6682 10.6436 10.1417 10.3562 10.5 9.94995" stroke="#4B5563" stroke-width="2" stroke-linecap="round" stroke-linejoin="round"/>
</g>
<defs>
<clipPath id="clip0_471_1016">
<rect width="16" height="16" fill="white" transform="translate(0.5 0.186035)"/>
</clipPath>
</defs>
</svg>
