<svg width="27" height="27" viewBox="0 0 27 27" fill="none" xmlns="http://www.w3.org/2000/svg">
<path fill-rule="evenodd" clip-rule="evenodd" d="M13.261 0.56375C5.92799 0.56375 0 6.53545 0 13.9232C0 19.8287 3.79827 24.8276 9.06748 26.5968C9.72626 26.7298 9.96757 26.3094 9.96757 25.9557C9.96757 25.646 9.94586 24.5843 9.94586 23.4782C6.25698 24.2746 5.4888 21.8857 5.4888 21.8857C4.89598 20.3374 4.01759 19.9395 4.01759 19.9395C2.81023 19.1211 4.10554 19.1211 4.10554 19.1211C5.44483 19.2096 6.14759 20.4924 6.14759 20.4924C7.33297 22.5271 9.2431 21.9522 10.0115 21.5982C10.1212 20.7356 10.4727 20.1384 10.846 19.8067C7.90381 19.497 4.8083 18.3469 4.8083 13.2153C4.8083 11.7555 5.3349 10.5612 6.1693 9.63231C6.03766 9.30061 5.57648 7.92902 6.30123 6.09327C6.30123 6.09327 7.42092 5.73931 9.94559 7.46459C11.0265 7.17215 12.1412 7.02339 13.261 7.02214C14.3807 7.02214 15.5221 7.17713 16.5761 7.46459C19.101 5.73931 20.2207 6.09327 20.2207 6.09327C20.9455 7.92902 20.484 9.30061 20.3524 9.63231C21.2087 10.5612 21.7136 11.7555 21.7136 13.2153C21.7136 18.3469 18.6181 19.4747 15.654 19.8067C16.1371 20.2269 16.5541 21.023 16.5541 22.2839C16.5541 24.0754 16.5324 25.5132 16.5324 25.9554C16.5324 26.3094 16.774 26.7298 17.4325 26.5971C22.7017 24.8273 26.4999 19.8287 26.4999 13.9232C26.5217 6.53545 20.5719 0.56375 13.261 0.56375Z" fill="#4B5563"/>
</svg>
