<svg width="33" height="33" viewBox="0 0 33 33" fill="none" xmlns="http://www.w3.org/2000/svg">
<path d="M29.8333 22.746V26.746C29.8348 27.1173 29.7587 27.4849 29.61 27.8251C29.4612 28.1654 29.243 28.4708 28.9694 28.7218C28.6958 28.9729 28.3727 29.164 28.021 29.2829C27.6692 29.4019 27.2964 29.4461 26.9266 29.4127C22.8237 28.9669 18.8826 27.5649 15.42 25.3193C12.1984 23.2722 9.46707 20.5409 7.41995 17.3193C5.16659 13.8409 3.76428 9.88066 3.32662 5.75933C3.2933 5.39062 3.33712 5.01902 3.45529 4.66817C3.57345 4.31732 3.76338 3.99492 4.01297 3.7215C4.26257 3.44807 4.56636 3.22961 4.90501 3.08003C5.24365 2.93045 5.60974 2.85302 5.97995 2.85267H9.97995C10.627 2.8463 11.2543 3.07544 11.745 3.49738C12.2356 3.91932 12.5561 4.50526 12.6466 5.146C12.8154 6.42609 13.1286 7.68297 13.58 8.89267C13.7593 9.3699 13.7982 9.88855 13.6918 10.3872C13.5855 10.8858 13.3384 11.3435 12.98 11.706L11.2866 13.3993C13.1847 16.7374 15.9486 19.5013 19.2866 21.3993L20.98 19.706C21.3425 19.3475 21.8002 19.1005 22.2988 18.9941C22.7974 18.8878 23.3161 18.9266 23.7933 19.106C25.003 19.5574 26.2599 19.8705 27.54 20.0393C28.1876 20.1307 28.7792 20.4569 29.202 20.956C29.6248 21.455 29.8495 22.0921 29.8333 22.746Z" stroke="#4B5563" stroke-width="2" stroke-linecap="round" stroke-linejoin="round"/>
</svg>
