<svg width="37" height="37" viewBox="0 0 37 37" fill="none" xmlns="http://www.w3.org/2000/svg">
<path fill-rule="evenodd" clip-rule="evenodd" d="M18.2135 6.18591C11.4597 6.18591 6 11.6859 6 18.4901C6 23.9291 9.49824 28.5331 14.3512 30.1626C14.958 30.2851 15.1802 29.8978 15.1802 29.5721C15.1802 29.2868 15.1602 28.3091 15.1602 27.2903C11.7627 28.0238 11.0552 25.8236 11.0552 25.8236C10.5092 24.3976 9.70023 24.0311 9.70023 24.0311C8.58824 23.2773 9.78123 23.2773 9.78123 23.2773C11.0147 23.3588 11.662 24.5403 11.662 24.5403C12.7537 26.4143 14.513 25.8848 15.2207 25.5588C15.3217 24.7643 15.6455 24.2143 15.9892 23.9088C13.2795 23.6236 10.4285 22.5643 10.4285 17.8381C10.4285 16.4936 10.9135 15.3936 11.682 14.5381C11.5607 14.2326 11.136 12.9694 11.8035 11.2786C11.8035 11.2786 12.8347 10.9526 15.16 12.5416C16.1555 12.2723 17.1821 12.1353 18.2135 12.1341C19.2447 12.1341 20.2959 12.2769 21.2667 12.5416C23.5922 10.9526 24.6234 11.2786 24.6234 11.2786C25.2909 12.9694 24.8659 14.2326 24.7447 14.5381C25.5334 15.3936 25.9984 16.4936 25.9984 17.8381C25.9984 22.5643 23.1474 23.6031 20.4174 23.9088C20.8624 24.2958 21.2464 25.0291 21.2464 26.1903C21.2464 27.8403 21.2264 29.1646 21.2264 29.5718C21.2264 29.8978 21.4489 30.2851 22.0554 30.1628C26.9084 28.5328 30.4067 23.9291 30.4067 18.4901C30.4267 11.6859 24.9469 6.18591 18.2135 6.18591Z" fill="#FB472A"/>
</svg>
