<svg width="28" height="28" viewBox="0 0 28 28" fill="none" xmlns="http://www.w3.org/2000/svg">
<path d="M25.5069 0.0929565H2.49313C1.96452 0.0929565 1.45756 0.302946 1.08377 0.67673C0.70999 1.05051 0.5 1.55747 0.5 2.08608V25.0998C0.5 25.6284 0.70999 26.1354 1.08377 26.5092C1.45756 26.883 1.96452 27.093 2.49313 27.093H25.5069C26.0355 27.093 26.5424 26.883 26.9162 26.5092C27.29 26.1354 27.5 25.6284 27.5 25.0998V2.08608C27.5 1.55747 27.29 1.05051 26.9162 0.67673C26.5424 0.302946 26.0355 0.0929565 25.5069 0.0929565ZM8.5475 23.0936H4.48813V10.1992H8.5475V23.0936ZM6.515 8.41233C6.05453 8.40974 5.60515 8.2708 5.22358 8.01306C4.842 7.75531 4.54532 7.3903 4.37099 6.96411C4.19665 6.53791 4.15248 6.06962 4.24404 5.61834C4.33559 5.16706 4.55878 4.75302 4.88542 4.42846C5.21207 4.1039 5.62754 3.88338 6.0794 3.79472C6.53126 3.70607 6.99925 3.75325 7.42432 3.93032C7.84939 4.10738 8.21248 4.40639 8.46777 4.78962C8.72306 5.17285 8.85911 5.62311 8.85875 6.08358C8.86309 6.39187 8.80533 6.69788 8.68889 6.98336C8.57245 7.26885 8.39973 7.52797 8.18102 7.74528C7.96231 7.96259 7.70208 8.13365 7.41585 8.24825C7.12962 8.36285 6.82325 8.41865 6.515 8.41233ZM23.51 23.1048H19.4525V16.0605C19.4525 13.983 18.5694 13.3417 17.4294 13.3417C16.2256 13.3417 15.0444 14.2492 15.0444 16.113V23.1048H10.985V10.2086H14.8888V11.9955H14.9413C15.3331 11.2023 16.7056 9.84671 18.8 9.84671C21.065 9.84671 23.5119 11.1911 23.5119 15.1286L23.51 23.1048Z" fill="#4B5563"/>
</svg>
